<?xml version="1.0" encoding="utf-8"?>
<svg xmlns="http://www.w3.org/2000/svg" width="2048" height="2048" viewBox="446.464 49.152 1439.744 1439.744" xmlns:bx="https://boxy-svg.com">
  <rect x="445.168" y="42.679" width="1441.84" height="1446.68" style="paint-order: fill; fill: rgb(47, 171, 153);"/>
  <path d="M1433.43 718.765C1459.91 690.352 1485.06 660.649 1512.51 633.201C1521.91 623.803 1536.43 604.694 1548.04 598.99C1602.67 572.144 1666.12 606.778 1666.46 669.48C1666.66 705.625 1650.43 719.939 1627.55 744.06L1577.36 796.242C1541.35 833.923 1503.95 875.802 1468.4 914.385L1203.12 1203C1194.39 1212.42 1186.21 1222.51 1177.61 1232.07C1155.26 1256.98 1132.37 1281.4 1108.96 1305.32C1103.82 1310.5 1101.89 1312.85 1095.31 1316.15C1093.65 1316.98 1084.29 1321.53 1083.87 1321.9C1073.58 1320.96 1062.74 1321.92 1052.5 1321.99C1042.82 1322.05 1033.74 1321 1023.88 1321.94C1023.39 1321.63 1021.39 1320.35 1021 1320.27C1016.54 1319.39 1004.03 1310.64 1000.52 1307.39C985.008 1293.04 969.472 1276.41 954.459 1261.33L845.721 1151.5L746.571 1051.92C725.883 1031.03 693.239 1005.68 688.478 976.482C683.417 945.44 704.694 924.754 724.075 903.661C747.044 878.665 775.401 871.078 806.265 888.483C824.527 900.795 852.13 932.283 867.999 948.757C906.721 988.221 945.787 1027.35 985.19 1066.13C995.226 1076.03 1005.15 1086.03 1014.97 1096.14C1032.06 1113.59 1035.53 1121.91 1061.93 1119.53C1073.88 1111.51 1108.39 1070.89 1119.84 1058.42L1250.56 918.146C1260.34 907.814 1269.66 895.218 1279.51 885.414C1281.82 883.988 1298.67 865.797 1301.47 862.815C1333.03 829.319 1363.7 794.985 1393.42 759.851C1398.21 755.612 1402.57 750.912 1406.43 745.818C1409.25 742.158 1410.99 740.643 1414.1 737.296C1420.14 733.201 1429.78 725.16 1433.43 718.765Z" style="fill: rgb(255, 255, 255);"/>
  <path d="M1091.17 665.567C1083.55 662.162 1076.36 658.408 1068.49 655.413C1055.25 650.372 1038.07 646.677 1026.45 638.527C1025.26 637.696 1025.25 636.422 1025.1 635.014C1024.22 627.024 1050.49 566.226 1055.57 553.152L1126.33 370.673C1133.57 351.853 1141.52 333.444 1148.76 314.753C1153.87 301.564 1157.32 289.703 1163.38 275.785C1173.42 252.745 1181.04 227.283 1191.09 204.086C1203.49 178.059 1212.06 135.087 1229.19 112.873C1266.17 64.9297 1343.17 107.949 1325.99 165.293C1324.07 171.704 1321.54 178.082 1322.15 184.377C1318.71 187.427 1302.51 221.052 1300.34 226.552C1296.24 232.741 1292.29 245.673 1289.36 253.314C1280.81 275.683 1272.43 298.117 1264.22 320.614C1228.45 417.74 1192.48 514.795 1156.51 611.856C1148.44 633.645 1139.6 654.535 1134.07 677.223C1132.39 684.116 1113.91 674.71 1110.66 673.681C1104.77 671.101 1097.13 667.89 1091.17 665.567Z" style="fill: rgb(255, 255, 255);"/>
  <path d="M989.889 846.121C998.603 845.581 1015 846.566 1024.23 846.851C1042.03 847.402 1059.83 847.725 1077.63 847.819C1124.23 848.203 1170.83 847.609 1217.42 847.884C1222.1 848.024 1224.66 847.814 1228.82 850.065C1242.52 857.488 1251.83 872.468 1245.32 888.033C1239.2 902.653 1237.14 901.945 1223.76 907.513C1201.32 909.057 1165.92 907.974 1142.69 907.963L1003.4 908.068C972.259 907.949 963.213 897.937 964.021 867.167C971.008 854.663 975.888 850.757 989.889 846.121Z" style="fill: rgb(255, 255, 255);"/>
  <path d="M1126.12 726.828C1136.15 713.388 1159.93 717.196 1175.6 717.155C1204.92 717.07 1234.25 717.167 1263.57 717.446C1305.66 717.722 1347.45 717.012 1389.53 716.149C1393.79 716.062 1395.73 716.051 1398.79 718.254C1400.36 723.274 1398.13 726.985 1393.5 729.107C1387.83 735.255 1381.73 740.809 1376.16 746.771C1374.51 750.126 1352.84 771.485 1349.08 775.32C1329.99 776.754 1092.66 775.819 1091.23 775.334C1088.46 774.398 1087.83 773.005 1086.45 770.686L1086.98 768.836C1097.61 762.351 1118.27 740.076 1123.84 729.09L1126.12 726.828Z" style="fill: rgb(255, 255, 255);"/>
  <path d="M985.415 715.925C1001.25 719.222 992.28 737.541 992.21 747.714C992.169 753.57 994.796 775.78 990.364 775.671C969.029 775.145 947.054 775.526 929.319 790.116C920.343 797.263 914.255 803.774 909.053 814.117C893.567 840.567 902.639 868.859 899.005 897.474C897.29 910.758 892.43 912.581 882.395 919.966C873.601 920.75 867.108 921.932 858.633 919.184C851.388 909.473 845.092 910.359 843.9 894.225C842.996 878.396 843.995 862.38 843.746 846.473C842.803 786.43 892.728 729.339 951.475 719.151C963.114 717.133 975.125 721.626 985.415 715.925Z" style="fill: rgb(255, 255, 255);"/>
  <path d="M1322.15 184.377C1325.07 188.454 1332.82 190.916 1337.66 193.705C1365.98 210.029 1378.01 243.277 1367.69 274.082C1362.89 288.031 1356.67 302.053 1351.12 315.727L1323.67 384.079C1313.25 409.874 1303.01 435.369 1293.74 461.617C1291.94 466.714 1287.64 473.973 1283.58 477.51C1282.97 478.031 1282.35 478.539 1281.72 479.034C1272.6 480.171 1270.76 480.244 1261.37 479.348C1238.67 458.913 1254.36 440.347 1264.13 415.862L1307.11 307.476C1313.9 290.33 1321.8 272.832 1327.58 255.344C1328.87 251.419 1328.44 246.51 1328.2 242.364C1320.45 235.887 1310.63 228.314 1300.34 226.552C1302.51 221.052 1318.71 187.427 1322.15 184.377Z" style="fill: rgb(255, 255, 255);"/>
  <path d="M1104.64 955.498C1124.86 955.392 1140.38 967.678 1139.27 988.838C1138.45 1004.57 1133.03 1005.11 1124.54 1014.9L1123.66 1015.93C1114.83 1016.48 1105.24 1019.13 1095.81 1018.96C1063.97 1018.38 1033.66 1017.87 1001.75 1018.94C995.438 1019.28 986.492 1016.72 979.187 1015.81C962.328 1000.14 963.298 998.355 963.715 975.877C970.667 965.199 972.834 963.634 983.199 956.005C1022.12 954.763 1064.93 956.24 1104.64 955.498Z" style="fill: rgb(255, 255, 255);"/>
  <path d="M1015 769.681C1014.96 764.52 1016 758.664 1016.04 753.357C1016.22 731.081 1016.92 709.597 1019.9 687.456C1021.26 677.4 1019.36 666.805 1022.25 656.439C1025.34 653.79 1023.62 654.507 1027.52 654.034C1031.25 655.494 1032.78 658.238 1035.33 661.478C1049.22 664.297 1054.91 670.213 1068.39 673.252C1069 673.643 1069.61 674.035 1070.22 674.427C1073.71 676.563 1077.52 678.152 1081.49 679.138C1085.64 680.171 1088.48 682.144 1092.01 684.505C1094.99 686.496 1102.65 686.922 1104.47 688.147C1112.72 693.677 1123.61 690.986 1120.14 703.901C1112.29 707.773 1045.49 785.241 1043.54 794.272C1039.36 809.331 1036.18 805.677 1029.64 816.362C1020.63 831.081 1013.37 831.182 1012.64 813.411C1011.92 795.879 1011.37 787.015 1015 769.681Z" style="fill: rgb(255, 255, 255); stroke-width: 0px;" id="object-0"/>
  <path d="M1043.54 794.272C1039.36 809.331 1036.18 805.677 1029.64 816.362C1020.63 831.081 1013.37 831.182 1012.64 813.411C1011.92 795.879 1011.37 787.015 1015 769.681C1015.48 774.189 1015.34 777.44 1015.45 781.888C1025.74 787.026 1032.57 790.892 1043.54 794.272Z" style="fill: rgb(255, 255, 255);"/>
  <path fill-opacity="0.97647059" d="M1023.88 1321.94C1033.74 1321 1042.82 1322.05 1052.5 1321.99C1062.74 1321.92 1073.58 1320.96 1083.87 1321.9C1076.77 1326.25 1074.22 1321.78 1066.01 1326.98C1057.62 1328.4 1042.73 1329.22 1035 1325.84C1029.04 1323.24 1028.01 1324.67 1023.88 1321.94Z" style="fill: rgb(255, 255, 255);"/>
  <defs>
    <bx:export>
      <bx:file format="png"/>
      <bx:file format="svg" href="#object-0"/>
    </bx:export>
  </defs>
</svg>